<svg xmlns="http://www.w3.org/2000/svg" width="512" height="512"><path d="M242.5.615C137.959 6.746 48.809 73.824 14.473 172.187 4.831 199.807.684 225.015.684 256c0 24.584 2.044 41.403 7.778 64 17.969 70.815 68.321 132.838 133.891 164.928 57.391 28.088 116.622 34.245 178.29 18.533 17.86-4.55 29.908-9.101 49.009-18.514 27.207-13.407 48.931-29.382 70.848-52.1 19.522-20.236 32.418-38.658 45.041-64.347 15.597-31.739 22.347-57.508 26.52-101.246 1.322-13.854 1.387-12.746-2.72-46.254-3.532-28.81-15.439-64.016-30.683-90.719C438.378 59.724 369.079 13.05 289 2.543 277.85 1.08 252.494.028 242.5.615M101.494 260.724c-21.369 53.777-39.671 99.913-40.67 102.526L59.008 368h33.673l6.795-17.75c3.738-9.762 8.568-22.363 10.734-28l3.938-10.25h79.554l10.851 28c5.968 15.4 11.21 28 11.649 28 .439 0 .776-18.337.748-40.75l-.05-40.75-24.309-61.5-24.308-61.5-13.968-.276-13.967-.277-38.854 97.777M153.184 202C145.835 220.728 120 288.024 120 288.441c0 .308 15.124.559 33.608.559h33.609l-.569-2.25c-.314-1.238-7.75-21.375-16.526-44.75-13.852-36.894-16.086-42.17-16.938-40M.349 256c0 4.675.173 6.587.383 4.25.211-2.337.211-6.162 0-8.5-.21-2.338-.383-.425-.383 4.25" fill="undefined" fill-rule="evenodd"/></svg>